<svg width="515" height="424" viewBox="0 0 515 424" fill="none" xmlns="http://www.w3.org/2000/svg">
<path d="M510.5 137L417.5 9C413.5 4 407.5 0 400.5 0H114.5C107.5 0 101.5 3 97.5 9L4.50002 137C-1.49998 145 -0.499984 156 6.50002 163L242.5 417C246.5 421 251.5 424 257.5 424C263.5 424 268.5 422 272.5 417L508.5 163C515.5 156 516.5 145 510.5 137ZM157.5 170L207.5 319L69.5 170H157.5ZM276.5 42L311.5 129H203.5L238.5 42H276.5ZM313.5 170L257.5 338L201.5 170H313.5ZM357.5 170H445.5L307.5 319L357.5 170ZM452.5 128H356.5L321.5 42H389.5L452.5 128ZM124.5 42H192.5L157.5 129H62.5L124.5 42Z" fill="#5D7196" stroke="#5D7196" stroke-width="0.008"/>
</svg>
